<mxfile host="app.diagrams.net" agent="Mozilla/5.0 (X11; Linux x86_64) AppleWebKit/537.36 (KHTML, like Gecko) Chrome/136.0.0.0 Safari/537.36" version="27.2.0">
  <diagram name="Page-1" id="tldKDSetQMj4G0KivhV6">
    <mxGraphModel grid="1" page="1" gridSize="10" guides="1" tooltips="1" connect="1" arrows="1" fold="1" pageScale="1" pageWidth="850" pageHeight="1100" math="0" shadow="0">
      <root>
        <mxCell id="0" />
        <mxCell id="1" parent="0" />
        <mxCell id="yVKAf2mZOe0JGGy7InLV-15" value="&lt;b&gt;Build&lt;/b&gt;" style="rounded=0;whiteSpace=wrap;html=1;strokeColor=none;fillColor=none;fontColor=#808080;" vertex="1" parent="1">
          <mxGeometry x="40" y="135" width="80" height="20" as="geometry" />
        </mxCell>
        <mxCell id="zc8EV6sk6yFDeqV_Vhmy-4" value="" style="rounded=0;whiteSpace=wrap;html=1;" vertex="1" parent="1">
          <mxGeometry x="480" y="120" width="80" height="50" as="geometry" />
        </mxCell>
        <mxCell id="izR9H2TS-rFpTbOR_gzO-14" value="" style="rounded=0;whiteSpace=wrap;html=1;" vertex="1" parent="1">
          <mxGeometry x="410" y="330" width="100" height="50" as="geometry" />
        </mxCell>
        <mxCell id="izR9H2TS-rFpTbOR_gzO-10" value="" style="rounded=0;whiteSpace=wrap;html=1;" vertex="1" parent="1">
          <mxGeometry x="410" y="220" width="100" height="50" as="geometry" />
        </mxCell>
        <mxCell id="izR9H2TS-rFpTbOR_gzO-1" value="" style="rounded=0;whiteSpace=wrap;html=1;" vertex="1" parent="1">
          <mxGeometry x="360" y="120" width="80" height="50" as="geometry" />
        </mxCell>
        <mxCell id="yVKAf2mZOe0JGGy7InLV-17" value="" style="rounded=0;whiteSpace=wrap;html=1;" vertex="1" parent="1">
          <mxGeometry x="170" y="330" width="100" height="50" as="geometry" />
        </mxCell>
        <mxCell id="yVKAf2mZOe0JGGy7InLV-1" value="" style="rounded=0;whiteSpace=wrap;html=1;" vertex="1" parent="1">
          <mxGeometry x="120" y="120" width="80" height="50" as="geometry" />
        </mxCell>
        <mxCell id="yVKAf2mZOe0JGGy7InLV-2" value="" style="rounded=0;whiteSpace=wrap;html=1;" vertex="1" parent="1">
          <mxGeometry x="240" y="120" width="80" height="50" as="geometry" />
        </mxCell>
        <mxCell id="yVKAf2mZOe0JGGy7InLV-3" value="" style="rounded=0;whiteSpace=wrap;html=1;" vertex="1" parent="1">
          <mxGeometry x="170" y="220" width="100" height="50" as="geometry" />
        </mxCell>
        <mxCell id="yVKAf2mZOe0JGGy7InLV-4" value="&lt;b&gt;Part 1&lt;/b&gt;" style="rounded=0;whiteSpace=wrap;html=1;strokeColor=none;fillColor=none;fontColor=#808080;" vertex="1" parent="1">
          <mxGeometry x="120" y="80" width="80" height="20" as="geometry" />
        </mxCell>
        <mxCell id="yVKAf2mZOe0JGGy7InLV-5" value="&lt;b&gt;Part 2&lt;/b&gt;" style="rounded=0;whiteSpace=wrap;html=1;strokeColor=none;fillColor=none;fontColor=#808080;" vertex="1" parent="1">
          <mxGeometry x="240" y="80" width="80" height="20" as="geometry" />
        </mxCell>
        <mxCell id="yVKAf2mZOe0JGGy7InLV-23" style="rounded=0;orthogonalLoop=1;jettySize=auto;html=1;exitX=0.5;exitY=1;exitDx=0;exitDy=0;strokeColor=#666666;endArrow=blockThin;endFill=1;" edge="1" parent="1" source="yVKAf2mZOe0JGGy7InLV-6" target="yVKAf2mZOe0JGGy7InLV-10">
          <mxGeometry relative="1" as="geometry" />
        </mxCell>
        <mxCell id="yVKAf2mZOe0JGGy7InLV-6" value="&lt;b&gt;&lt;font style=&quot;color: rgb(255, 255, 255);&quot;&gt;A&lt;/font&gt;&lt;/b&gt;" style="ellipse;whiteSpace=wrap;html=1;strokeColor=#009900;fillColor=#009900;" vertex="1" parent="1">
          <mxGeometry x="130" y="130" width="20" height="20" as="geometry" />
        </mxCell>
        <mxCell id="yVKAf2mZOe0JGGy7InLV-7" value="&lt;b&gt;&lt;font style=&quot;color: rgb(255, 255, 255);&quot;&gt;B&lt;/font&gt;&lt;/b&gt;" style="ellipse;whiteSpace=wrap;html=1;strokeColor=#009900;fillColor=#009900;" vertex="1" parent="1">
          <mxGeometry x="170" y="140" width="20" height="20" as="geometry" />
        </mxCell>
        <mxCell id="yVKAf2mZOe0JGGy7InLV-25" style="rounded=0;orthogonalLoop=1;jettySize=auto;html=1;exitX=0.5;exitY=1;exitDx=0;exitDy=0;endArrow=blockThin;endFill=1;strokeColor=#666666;" edge="1" parent="1" source="yVKAf2mZOe0JGGy7InLV-8" target="yVKAf2mZOe0JGGy7InLV-13">
          <mxGeometry relative="1" as="geometry" />
        </mxCell>
        <mxCell id="yVKAf2mZOe0JGGy7InLV-8" value="&lt;b&gt;&lt;font style=&quot;color: rgb(255, 255, 255);&quot;&gt;C&lt;/font&gt;&lt;/b&gt;" style="ellipse;whiteSpace=wrap;html=1;fillColor=#0066CC;strokeColor=#0066CC;" vertex="1" parent="1">
          <mxGeometry x="250" y="130" width="20" height="20" as="geometry" />
        </mxCell>
        <mxCell id="yVKAf2mZOe0JGGy7InLV-9" value="&lt;b&gt;&lt;font style=&quot;color: rgb(255, 255, 255);&quot;&gt;D&lt;/font&gt;&lt;/b&gt;" style="ellipse;whiteSpace=wrap;html=1;strokeColor=#0066CC;fillColor=#0066CC;" vertex="1" parent="1">
          <mxGeometry x="290" y="140" width="20" height="20" as="geometry" />
        </mxCell>
        <mxCell id="yVKAf2mZOe0JGGy7InLV-27" style="rounded=0;orthogonalLoop=1;jettySize=auto;html=1;exitX=0.5;exitY=1;exitDx=0;exitDy=0;entryX=0.5;entryY=0;entryDx=0;entryDy=0;endArrow=blockThin;endFill=1;strokeColor=#666666;" edge="1" parent="1" source="yVKAf2mZOe0JGGy7InLV-10" target="yVKAf2mZOe0JGGy7InLV-18">
          <mxGeometry relative="1" as="geometry" />
        </mxCell>
        <mxCell id="yVKAf2mZOe0JGGy7InLV-10" value="&lt;b&gt;&lt;font style=&quot;color: rgb(255, 255, 255);&quot;&gt;A&lt;/font&gt;&lt;/b&gt;" style="ellipse;whiteSpace=wrap;html=1;strokeColor=#009900;fillColor=#009900;" vertex="1" parent="1">
          <mxGeometry x="180" y="230" width="20" height="20" as="geometry" />
        </mxCell>
        <mxCell id="yVKAf2mZOe0JGGy7InLV-28" style="rounded=0;orthogonalLoop=1;jettySize=auto;html=1;exitX=0.5;exitY=1;exitDx=0;exitDy=0;entryX=0.5;entryY=0;entryDx=0;entryDy=0;endArrow=blockThin;endFill=1;strokeColor=#666666;" edge="1" parent="1" source="yVKAf2mZOe0JGGy7InLV-11" target="yVKAf2mZOe0JGGy7InLV-19">
          <mxGeometry relative="1" as="geometry" />
        </mxCell>
        <mxCell id="yVKAf2mZOe0JGGy7InLV-11" value="&lt;b&gt;&lt;font style=&quot;color: rgb(255, 255, 255);&quot;&gt;B&lt;/font&gt;&lt;/b&gt;" style="ellipse;whiteSpace=wrap;html=1;strokeColor=#009900;fillColor=#009900;" vertex="1" parent="1">
          <mxGeometry x="420" y="240" width="20" height="20" as="geometry" />
        </mxCell>
        <mxCell id="yVKAf2mZOe0JGGy7InLV-29" style="rounded=0;orthogonalLoop=1;jettySize=auto;html=1;exitX=0.5;exitY=1;exitDx=0;exitDy=0;endArrow=blockThin;endFill=1;strokeColor=#666666;" edge="1" parent="1" source="yVKAf2mZOe0JGGy7InLV-13" target="yVKAf2mZOe0JGGy7InLV-20">
          <mxGeometry relative="1" as="geometry" />
        </mxCell>
        <mxCell id="yVKAf2mZOe0JGGy7InLV-13" value="&lt;b&gt;&lt;font style=&quot;color: rgb(255, 255, 255);&quot;&gt;C&lt;/font&gt;&lt;/b&gt;" style="ellipse;whiteSpace=wrap;html=1;fillColor=#0066CC;strokeColor=#0066CC;" vertex="1" parent="1">
          <mxGeometry x="230" y="235" width="20" height="20" as="geometry" />
        </mxCell>
        <mxCell id="yVKAf2mZOe0JGGy7InLV-16" value="&lt;b&gt;Stage&lt;/b&gt;" style="rounded=0;whiteSpace=wrap;html=1;strokeColor=none;fillColor=none;fontColor=#808080;" vertex="1" parent="1">
          <mxGeometry x="40" y="235" width="80" height="20" as="geometry" />
        </mxCell>
        <mxCell id="yVKAf2mZOe0JGGy7InLV-18" value="&lt;b&gt;&lt;font style=&quot;color: rgb(255, 255, 255);&quot;&gt;A&lt;/font&gt;&lt;/b&gt;" style="ellipse;whiteSpace=wrap;html=1;strokeColor=#009900;fillColor=#009900;" vertex="1" parent="1">
          <mxGeometry x="180" y="347" width="20" height="20" as="geometry" />
        </mxCell>
        <mxCell id="yVKAf2mZOe0JGGy7InLV-19" value="&lt;b&gt;&lt;font style=&quot;color: rgb(255, 255, 255);&quot;&gt;B&lt;/font&gt;&lt;/b&gt;" style="ellipse;whiteSpace=wrap;html=1;strokeColor=#009900;fillColor=#009900;" vertex="1" parent="1">
          <mxGeometry x="420" y="345" width="20" height="20" as="geometry" />
        </mxCell>
        <mxCell id="yVKAf2mZOe0JGGy7InLV-20" value="&lt;b&gt;&lt;font style=&quot;color: rgb(255, 255, 255);&quot;&gt;C&lt;/font&gt;&lt;/b&gt;" style="ellipse;whiteSpace=wrap;html=1;fillColor=#0066CC;strokeColor=#0066CC;" vertex="1" parent="1">
          <mxGeometry x="230" y="344" width="20" height="20" as="geometry" />
        </mxCell>
        <mxCell id="yVKAf2mZOe0JGGy7InLV-22" value="&lt;b&gt;Prime&lt;/b&gt;" style="rounded=0;whiteSpace=wrap;html=1;strokeColor=none;fillColor=none;fontColor=#808080;" vertex="1" parent="1">
          <mxGeometry x="40" y="345" width="80" height="20" as="geometry" />
        </mxCell>
        <mxCell id="yVKAf2mZOe0JGGy7InLV-30" value="Stage migration" style="rounded=0;whiteSpace=wrap;html=1;strokeColor=none;fillColor=none;fontColor=#808080;" vertex="1" parent="1">
          <mxGeometry x="540" y="190" width="100" height="20" as="geometry" />
        </mxCell>
        <mxCell id="yVKAf2mZOe0JGGy7InLV-31" value="Prime migration" style="rounded=0;whiteSpace=wrap;html=1;strokeColor=none;fillColor=none;fontColor=#808080;" vertex="1" parent="1">
          <mxGeometry x="540" y="290" width="100" height="20" as="geometry" />
        </mxCell>
        <mxCell id="izR9H2TS-rFpTbOR_gzO-2" value="&lt;b&gt;Partition&lt;/b&gt;" style="rounded=0;whiteSpace=wrap;html=1;strokeColor=none;fillColor=none;fontColor=#808080;" vertex="1" parent="1">
          <mxGeometry x="420" y="60" width="80" height="20" as="geometry" />
        </mxCell>
        <mxCell id="izR9H2TS-rFpTbOR_gzO-13" style="rounded=0;orthogonalLoop=1;jettySize=auto;html=1;exitX=0.5;exitY=1;exitDx=0;exitDy=0;entryX=0.5;entryY=0;entryDx=0;entryDy=0;endArrow=blockThin;endFill=1;strokeColor=#666666;" edge="1" parent="1" source="izR9H2TS-rFpTbOR_gzO-3" target="yVKAf2mZOe0JGGy7InLV-11">
          <mxGeometry relative="1" as="geometry" />
        </mxCell>
        <mxCell id="izR9H2TS-rFpTbOR_gzO-3" value="&lt;b&gt;&lt;font style=&quot;color: rgb(255, 255, 255);&quot;&gt;B&lt;/font&gt;&lt;/b&gt;" style="ellipse;whiteSpace=wrap;html=1;strokeColor=#009900;fillColor=#009900;" vertex="1" parent="1">
          <mxGeometry x="370" y="140" width="20" height="20" as="geometry" />
        </mxCell>
        <mxCell id="izR9H2TS-rFpTbOR_gzO-15" style="rounded=0;orthogonalLoop=1;jettySize=auto;html=1;exitX=0.5;exitY=1;exitDx=0;exitDy=0;entryX=0.5;entryY=0;entryDx=0;entryDy=0;strokeColor=#666666;endArrow=blockThin;endFill=1;" edge="1" parent="1" source="izR9H2TS-rFpTbOR_gzO-4" target="izR9H2TS-rFpTbOR_gzO-12">
          <mxGeometry relative="1" as="geometry" />
        </mxCell>
        <mxCell id="izR9H2TS-rFpTbOR_gzO-7" style="edgeStyle=orthogonalEdgeStyle;rounded=0;orthogonalLoop=1;jettySize=auto;html=1;exitX=1;exitY=1;exitDx=0;exitDy=0;entryX=0.29;entryY=0.84;entryDx=0;entryDy=0;entryPerimeter=0;curved=1;strokeColor=#666666;endArrow=blockThin;endFill=1;dashed=1;" edge="1" parent="1" source="yVKAf2mZOe0JGGy7InLV-7" target="izR9H2TS-rFpTbOR_gzO-3">
          <mxGeometry relative="1" as="geometry">
            <Array as="points">
              <mxPoint x="187" y="200" />
              <mxPoint x="376" y="200" />
            </Array>
          </mxGeometry>
        </mxCell>
        <mxCell id="izR9H2TS-rFpTbOR_gzO-9" value="organize" style="rounded=0;whiteSpace=wrap;html=1;strokeColor=none;fillColor=none;fontColor=#808080;" vertex="1" parent="1">
          <mxGeometry x="300" y="200" width="50" height="20" as="geometry" />
        </mxCell>
        <mxCell id="izR9H2TS-rFpTbOR_gzO-12" value="&lt;b&gt;&lt;font style=&quot;color: rgb(255, 255, 255);&quot;&gt;D&lt;/font&gt;&lt;/b&gt;" style="ellipse;whiteSpace=wrap;html=1;strokeColor=#0066CC;fillColor=#0066CC;" vertex="1" parent="1">
          <mxGeometry x="470" y="235" width="20" height="20" as="geometry" />
        </mxCell>
        <mxCell id="izR9H2TS-rFpTbOR_gzO-4" value="&lt;b&gt;&lt;font style=&quot;color: rgb(255, 255, 255);&quot;&gt;D&lt;/font&gt;&lt;/b&gt;" style="ellipse;whiteSpace=wrap;html=1;strokeColor=#0066CC;fillColor=#0066CC;" vertex="1" parent="1">
          <mxGeometry x="500" y="135" width="20" height="20" as="geometry" />
        </mxCell>
        <mxCell id="izR9H2TS-rFpTbOR_gzO-8" style="edgeStyle=orthogonalEdgeStyle;rounded=0;orthogonalLoop=1;jettySize=auto;html=1;exitX=1;exitY=1;exitDx=0;exitDy=0;entryX=0.22;entryY=1.02;entryDx=0;entryDy=0;entryPerimeter=0;curved=1;strokeColor=#666666;endArrow=blockThin;endFill=1;dashed=1;" edge="1" parent="1" source="yVKAf2mZOe0JGGy7InLV-9" target="izR9H2TS-rFpTbOR_gzO-4">
          <mxGeometry relative="1" as="geometry">
            <Array as="points">
              <mxPoint x="307" y="190" />
              <mxPoint x="504" y="190" />
            </Array>
          </mxGeometry>
        </mxCell>
        <mxCell id="zc8EV6sk6yFDeqV_Vhmy-11" value="" style="ellipse;whiteSpace=wrap;html=1;strokeColor=#FF0000;fillColor=none;" vertex="1" parent="1">
          <mxGeometry x="140" y="195" width="50" height="10" as="geometry" />
        </mxCell>
        <mxCell id="zc8EV6sk6yFDeqV_Vhmy-12" value="" style="ellipse;whiteSpace=wrap;html=1;strokeColor=#FF0000;fillColor=none;" vertex="1" parent="1">
          <mxGeometry x="230" y="205" width="50" height="10" as="geometry" />
        </mxCell>
        <mxCell id="zc8EV6sk6yFDeqV_Vhmy-13" value="" style="ellipse;whiteSpace=wrap;html=1;strokeColor=#FF0000;fillColor=none;" vertex="1" parent="1">
          <mxGeometry x="380" y="200" width="50" height="10" as="geometry" />
        </mxCell>
        <mxCell id="zc8EV6sk6yFDeqV_Vhmy-16" value="" style="ellipse;whiteSpace=wrap;html=1;strokeColor=#FF0000;fillColor=none;" vertex="1" parent="1">
          <mxGeometry x="470" y="195" width="50" height="10" as="geometry" />
        </mxCell>
        <mxCell id="J-1bBRnQBU9s8kq1kbA8-1" value="&lt;b&gt;Part 1&lt;/b&gt;" style="rounded=0;whiteSpace=wrap;html=1;strokeColor=none;fillColor=none;fontColor=#808080;" vertex="1" parent="1">
          <mxGeometry x="365" y="80" width="80" height="20" as="geometry" />
        </mxCell>
        <mxCell id="J-1bBRnQBU9s8kq1kbA8-2" value="&lt;b&gt;Part 2&lt;/b&gt;" style="rounded=0;whiteSpace=wrap;html=1;strokeColor=none;fillColor=none;fontColor=#808080;" vertex="1" parent="1">
          <mxGeometry x="480" y="80" width="80" height="20" as="geometry" />
        </mxCell>
      </root>
    </mxGraphModel>
  </diagram>
</mxfile>
